<svg id="Camada_1" data-name="Camada 1" xmlns="http://www.w3.org/2000/svg" viewBox="0 0 220.48 52.82"><defs><style>.cls-1{fill:#1bb258;}.cls-2{fill:#17994c;}.cls-3{fill:#1fcc65;}.cls-4{fill:none;}.cls-5{fill:#095957;}</style></defs><polygon class="cls-1" points="43.85 21.92 21.93 21.92 21.93 21.92 43.85 43.84 43.85 43.84 43.85 21.92"/><polygon class="cls-2" points="43.84 21.92 43.84 0 43.83 0 21.92 21.92 21.92 21.92 43.84 21.92"/><polygon class="cls-3" points="21.92 43.84 43.85 43.84 43.85 43.83 21.93 21.92 21.92 21.92 21.92 43.84"/><polygon class="cls-1" points="21.92 43.84 21.92 21.92 21.92 21.92 0 43.83 0 43.84 21.92 43.84"/><path class="cls-4" d="M181.42,34.84a7.23,7.23,0,0,0-5,2.06v8.71a7.56,7.56,0,0,0,5,2c3.69,0,6.09-2.53,6.09-6.35S185.15,34.84,181.42,34.84Z" transform="translate(-17.76 -8.59)"/><path class="cls-4" d="M207.6,34.36a5.06,5.06,0,0,0-5.37,4.12H212a3.94,3.94,0,0,0,.05-.77C212,35.91,210.64,34.36,207.6,34.36Z" transform="translate(-17.76 -8.59)"/><path class="cls-4" d="M94.42,32.86c0-2.87-2-4.38-4.72-4.38H82.23V37.2H89.7C92.45,37.2,94.42,35.57,94.42,32.86Z" transform="translate(-17.76 -8.59)"/><path class="cls-4" d="M109.31,45.52c0,1.89,1.38,2.62,3.35,2.62a7.21,7.21,0,0,0,4.64-1.76V42.82a10.82,10.82,0,0,0-2.49-.3C111.67,42.52,109.31,43.55,109.31,45.52Z" transform="translate(-17.76 -8.59)"/><path class="cls-5" d="M100.69,32.73c0-6.56-4.47-9.48-11.63-9.48H76.22V52.43h6V41.92h3.61l9.74,10.51h6.74v-1L93,41.7C97.38,40.8,100.69,37.37,100.69,32.73ZM82.23,37.2V28.48H89.7c2.75,0,4.72,1.51,4.72,4.38,0,2.71-2,4.34-4.72,4.34Z" transform="translate(-17.76 -8.59)"/><path class="cls-5" d="M113.82,29.6a25.32,25.32,0,0,0-8.58,1.5l1,5.15a19.12,19.12,0,0,1,7.08-1.54c2.57,0,3.86,1.11,4,3.86a19.7,19.7,0,0,0-3.78-.3c-6.14,0-10.21,2.7-10.21,7.9,0,4.07,2.66,6.69,7.38,6.69a9.39,9.39,0,0,0,6.61-2.57v2.14h6v-14C123.3,33.72,120.73,29.6,113.82,29.6Zm3.48,16.78a7.21,7.21,0,0,1-4.64,1.76c-2,0-3.35-.73-3.35-2.62s2.36-3,5.5-3a10.82,10.82,0,0,1,2.49.3Z" transform="translate(-17.76 -8.59)"/><path class="cls-5" d="M165.62,52.43V39.51c0-5.53-2.4-9.91-8.5-9.91a10.44,10.44,0,0,0-8.19,3.69c-1.33-2.36-3.52-3.73-7.51-3.73a9.7,9.7,0,0,0-7.34,2.92V30h-6V52.43h6V38.66a5.38,5.38,0,0,1,5.32-3.52c3.22,0,4.51,2.06,4.51,5.32v12h6V38.57a5.21,5.21,0,0,1,5.2-3.43c3.17,0,4.5,2.06,4.5,5.36V52.43Z" transform="translate(-17.76 -8.59)"/><path class="cls-5" d="M183.09,29.6a8.93,8.93,0,0,0-6.7,2.7V30h-6V61.41l6-2.82V50.33a9.61,9.61,0,0,0,6.7,2.53c6.27,0,10.51-4.85,10.51-11.59S189.36,29.6,183.09,29.6Zm-1.67,18a7.56,7.56,0,0,1-5-2V36.9a7.23,7.23,0,0,1,5-2.06c3.73,0,6.09,2.57,6.09,6.43S185.11,47.62,181.42,47.62Z" transform="translate(-17.76 -8.59)"/><path class="cls-5" d="M217.77,38.74c0-5.19-3.22-9.35-10.05-9.35-7.21,0-11.84,5.19-11.84,11.88S199.66,53,208.11,53A14.89,14.89,0,0,0,217.55,50l-2.27-4.29a12.25,12.25,0,0,1-7,2.32c-3.65,0-5.66-1.76-6.22-4.89h15.23A20.53,20.53,0,0,0,217.77,38.74Zm-5.8-.26h-9.74a5.06,5.06,0,0,1,5.37-4.12c3,0,4.42,1.55,4.42,3.35A3.94,3.94,0,0,1,212,38.48Z" transform="translate(-17.76 -8.59)"/><path class="cls-5" d="M233.47,29.6c-2.79,0-4.67,1.72-6,4.38V30h-6V52.43h6v-13c.69-2.4,2.45-4.33,5-4.33a7.2,7.2,0,0,1,3.47,1l2.28-5A7.78,7.78,0,0,0,233.47,29.6Z" transform="translate(-17.76 -8.59)"/></svg>